<svg width="169" height="32" viewBox="0 0 169 32" fill="none" xmlns="http://www.w3.org/2000/svg">
<path d="M3.99998 12C5.47274 12 6.66665 10.8061 6.66665 9.33335C6.66665 7.86059 5.47274 6.66669 3.99998 6.66669C2.52722 6.66669 1.33331 7.86059 1.33331 9.33335C1.33331 10.8061 2.52722 12 3.99998 12Z" stroke="#B4CD93" stroke-width="1.5" stroke-miterlimit="10" stroke-linecap="round" stroke-linejoin="round"/>
<path d="M28 12C29.4727 12 30.6666 10.8061 30.6666 9.33335C30.6666 7.86059 29.4727 6.66669 28 6.66669C26.5272 6.66669 25.3333 7.86059 25.3333 9.33335C25.3333 10.8061 26.5272 12 28 12Z" stroke="#B4CD93" stroke-width="1.5" stroke-miterlimit="10" stroke-linecap="round" stroke-linejoin="round"/>
<path d="M25.3333 9.33334H20" stroke="#B4CD93" stroke-width="1.5" stroke-miterlimit="10" stroke-linecap="round" stroke-linejoin="round"/>
<path d="M12 9.33334H6.66663" stroke="#B4CD93" stroke-width="1.5" stroke-miterlimit="10" stroke-linecap="round" stroke-linejoin="round"/>
<path d="M9.99998 22V24.6667C9.99998 25.48 9.50665 26.1866 8.81331 26.48C8.55998 26.6 8.29331 26.6667 7.99998 26.6667H5.33331C4.22665 26.6667 3.33331 25.7733 3.33331 24.6667V22C3.33331 20.8933 4.22665 20 5.33331 20H7.99998C9.10665 20 9.99998 20.8933 9.99998 22Z" stroke="#B4CD93" stroke-width="1.5" stroke-miterlimit="10" stroke-linecap="round" stroke-linejoin="round"/>
<path d="M28.6667 22V24.6667C28.6667 25.7733 27.7733 26.6667 26.6667 26.6667H24C23.7067 26.6667 23.44 26.6 23.1867 26.48C22.4933 26.1866 22 25.48 22 24.6667V22C22 20.8933 22.8933 20 24 20H26.6667C27.7733 20 28.6667 20.8933 28.6667 22Z" stroke="#B4CD93" stroke-width="1.5" stroke-miterlimit="10" stroke-linecap="round" stroke-linejoin="round"/>
<path d="M20 7.33334V11.3333C20 12.4267 19.0933 13.3333 18 13.3333H14C12.9067 13.3333 12 12.4267 12 11.3333V7.33334C12 6.24001 12.9067 5.33334 14 5.33334H18C19.0933 5.33334 20 6.24001 20 7.33334Z" stroke="#B4CD93" stroke-width="1.5" stroke-miterlimit="10" stroke-linecap="round" stroke-linejoin="round"/>
<path d="M20 10.3066C23.16 11.9066 25.3333 15.3467 25.3333 19.3333C25.3333 19.56 25.32 19.7733 25.2933 20" stroke="#B4CD93" stroke-width="1.5" stroke-miterlimit="10" stroke-linecap="round" stroke-linejoin="round"/>
<path d="M6.70663 20C6.67996 19.7733 6.66663 19.56 6.66663 19.3333C6.66663 15.3467 8.83996 11.9066 12 10.3066" stroke="#B4CD93" stroke-width="1.5" stroke-miterlimit="10" stroke-linecap="round" stroke-linejoin="round"/>
<path d="M41.68 25V7.72H52.72V10.084H44.188V14.932H51.28V17.296H44.188V22.636H52.72V25H41.68ZM55.6019 25V7.72H61.0139C61.1739 7.72 61.4699 7.724 61.9019 7.732C62.3419 7.74 62.7619 7.772 63.1619 7.828C64.5139 7.996 65.6499 8.48 66.5699 9.28C67.4979 10.08 68.1979 11.096 68.6699 12.328C69.1419 13.552 69.3779 14.896 69.3779 16.36C69.3779 17.832 69.1419 19.184 68.6699 20.416C68.1979 21.64 67.4979 22.652 66.5699 23.452C65.6499 24.244 64.5139 24.724 63.1619 24.892C62.7619 24.948 62.3419 24.98 61.9019 24.988C61.4699 24.996 61.1739 25 61.0139 25H55.6019ZM58.1699 22.612H61.0139C61.2859 22.612 61.6099 22.604 61.9859 22.588C62.3619 22.572 62.6939 22.54 62.9819 22.492C63.8619 22.324 64.5739 21.944 65.1179 21.352C65.6699 20.752 66.0739 20.016 66.3299 19.144C66.5859 18.272 66.7139 17.344 66.7139 16.36C66.7139 15.344 66.5819 14.404 66.3179 13.54C66.0539 12.668 65.6459 11.94 65.0939 11.356C64.5499 10.764 63.8459 10.388 62.9819 10.228C62.6939 10.172 62.3579 10.14 61.9739 10.132C61.5979 10.116 61.2779 10.108 61.0139 10.108H58.1699V22.612ZM79.3842 25.36C77.6562 25.36 76.1842 24.984 74.9682 24.232C73.7522 23.472 72.8202 22.416 72.1722 21.064C71.5322 19.712 71.2122 18.144 71.2122 16.36C71.2122 14.576 71.5322 13.008 72.1722 11.656C72.8202 10.304 73.7522 9.252 74.9682 8.5C76.1842 7.74 77.6562 7.36 79.3842 7.36C81.3762 7.36 83.0242 7.864 84.3282 8.872C85.6402 9.88 86.5522 11.236 87.0642 12.94L84.5202 13.624C84.1842 12.416 83.5842 11.468 82.7202 10.78C81.8642 10.092 80.7522 9.748 79.3842 9.748C78.1602 9.748 77.1402 10.024 76.3242 10.576C75.5082 11.128 74.8922 11.9 74.4762 12.892C74.0682 13.884 73.8642 15.04 73.8642 16.36C73.8562 17.68 74.0562 18.836 74.4642 19.828C74.8802 20.82 75.4962 21.592 76.3122 22.144C77.1362 22.696 78.1602 22.972 79.3842 22.972C80.7522 22.972 81.8642 22.628 82.7202 21.94C83.5842 21.244 84.1842 20.296 84.5202 19.096L87.0642 19.78C86.5522 21.484 85.6402 22.84 84.3282 23.848C83.0242 24.856 81.3762 25.36 79.3842 25.36ZM93.3081 25L98.9241 7.72H102.536L108.152 25H105.548L100.376 9.232H101.024L95.9121 25H93.3081ZM96.2241 21.1V18.748H105.248V21.1H96.2241ZM110.305 25V7.72H115.717C115.877 7.72 116.173 7.724 116.605 7.732C117.045 7.74 117.465 7.772 117.865 7.828C119.217 7.996 120.353 8.48 121.273 9.28C122.201 10.08 122.901 11.096 123.373 12.328C123.845 13.552 124.081 14.896 124.081 16.36C124.081 17.832 123.845 19.184 123.373 20.416C122.901 21.64 122.201 22.652 121.273 23.452C120.353 24.244 119.217 24.724 117.865 24.892C117.465 24.948 117.045 24.98 116.605 24.988C116.173 24.996 115.877 25 115.717 25H110.305ZM112.873 22.612H115.717C115.989 22.612 116.313 22.604 116.689 22.588C117.065 22.572 117.397 22.54 117.685 22.492C118.565 22.324 119.277 21.944 119.821 21.352C120.373 20.752 120.777 20.016 121.033 19.144C121.289 18.272 121.417 17.344 121.417 16.36C121.417 15.344 121.285 14.404 121.021 13.54C120.757 12.668 120.349 11.94 119.797 11.356C119.253 10.764 118.549 10.388 117.685 10.228C117.397 10.172 117.061 10.14 116.677 10.132C116.301 10.116 115.981 10.108 115.717 10.108H112.873V22.612ZM126.875 25V7.72H129.143L135.407 20.716L141.635 7.72H143.927V24.988H141.551V13.168L135.971 25H134.831L129.239 13.168V25H126.875ZM147.529 25V7.72H150.037V25H147.529ZM153.641 25V7.72H156.185L164.693 20.56V7.72H167.237V25H164.693L156.185 12.148V25H153.641Z" fill="url(#paint0_linear_1_141)"/>
<defs>
<linearGradient id="paint0_linear_1_141" x1="44.6071" y1="11" x2="129.26" y2="67.001" gradientUnits="userSpaceOnUse">
<stop stop-color="#B4CD93"/>
<stop offset="1" stop-color="#427A5B"/>
</linearGradient>
</defs>
</svg>
