<svg width="41" height="40" viewBox="0 0 41 40" fill="none" xmlns="http://www.w3.org/2000/svg">
<path d="M31.3981 26.7988C31.3981 26.2908 30.9863 25.8789 30.4783 25.8789H24.0589C24.1954 22.5578 25.036 19.1889 25.8515 15.9219C26.7695 12.2448 27.7187 8.44266 27.7187 4.59933C27.7187 2.06326 25.6554 0 23.1193 0H4.59933C2.06326 0 0 2.06326 0 4.59933C0 5.10735 0.411855 5.5192 0.919867 5.5192H7.33974C7.20317 8.84023 6.36223 12.2093 5.54661 15.4763C4.62865 19.1533 3.67947 22.9555 3.67947 26.7988C3.67947 29.3349 5.74273 31.3981 8.2788 31.3981H26.7988C29.3349 31.3981 31.3981 29.3349 31.3981 26.7988ZM1.99734 3.67947C2.377 2.60868 3.40007 1.83973 4.59933 1.83973C5.79859 1.83973 6.82167 2.60868 7.20133 3.67947H1.99734ZM5.5192 26.7988C5.5192 23.1816 6.44054 19.491 7.33152 15.9219C8.24949 12.2448 9.19867 8.44266 9.19867 4.59933C9.19867 3.56473 8.85507 2.60899 8.27629 1.83973H23.1193C24.641 1.83973 25.8789 3.07769 25.8789 4.59933C25.8789 8.21649 24.9576 11.9071 24.0666 15.4763C23.2219 18.8597 22.3515 22.3491 22.2177 25.8789H11.9583C11.4503 25.8789 11.0384 26.2908 11.0384 26.7988C11.0384 28.3204 9.80044 29.5584 8.2788 29.5584C6.75716 29.5584 5.5192 28.3204 5.5192 26.7988ZM26.7988 29.5584H11.9548C12.3576 29.0232 12.6472 28.3982 12.7857 27.7187H29.4002C29.0204 28.7893 27.998 29.5584 26.7988 29.5584Z" fill="#60C1F8"/>
<path d="M11.9582 9.19862H22.8123C23.3203 9.19862 23.7322 8.78677 23.7322 8.27875C23.7322 7.77074 23.3203 7.35889 22.8123 7.35889H11.9582C11.4502 7.35889 11.0383 7.77074 11.0383 8.27875C11.0383 8.78677 11.4502 9.19862 11.9582 9.19862Z" fill="#22355D"/>
<path d="M11.0949 12.8781H22.0754C22.5834 12.8781 22.9952 12.4662 22.9952 11.9582C22.9952 11.4502 22.5834 11.0383 22.0754 11.0383H11.0949C10.5869 11.0383 10.175 11.4502 10.175 11.9582C10.175 12.4662 10.5869 12.8781 11.0949 12.8781Z" fill="#22355D"/>
<path d="M10.2329 16.5575H21.1653C21.6734 16.5575 22.0852 16.1457 22.0852 15.6376C22.0852 15.1296 21.6734 14.7178 21.1653 14.7178H10.2329C9.72484 14.7178 9.31299 15.1296 9.31299 15.6376C9.31299 16.1457 9.72484 16.5575 10.2329 16.5575Z" fill="#22355D"/>
<path d="M9.3227 20.2372H20.3032C20.8112 20.2372 21.2231 19.8253 21.2231 19.3173C21.2231 18.8093 20.8112 18.3975 20.3032 18.3975H9.3227C8.81469 18.3975 8.40283 18.8093 8.40283 19.3173C8.40283 19.8253 8.81469 20.2372 9.3227 20.2372Z" fill="#22355D"/>
<circle cx="28.4469" cy="27.6206" r="9.72717" transform="rotate(-60 28.4469 27.6206)" fill="#F8C301" stroke="white" stroke-width="2"/>
<path d="M28.8873 22.6633C26.2447 22.6633 24.1094 24.8039 24.1094 27.4439H22.5159L24.5848 29.5128L24.6219 29.5898L26.7652 27.4439H25.1717C25.1717 25.3909 26.837 23.7257 28.8899 23.7257C30.9429 23.7257 32.6081 25.3909 32.6081 27.4439C32.6081 29.4968 30.9429 31.1621 28.8899 31.1621C27.8621 31.1621 26.9352 30.7424 26.2633 30.0705L25.5117 30.8221C26.3748 31.6879 27.5673 32.2244 28.8873 32.2244C31.5299 32.2244 33.6705 30.0838 33.6705 27.4439C33.6705 24.8039 31.5299 22.6633 28.8873 22.6633Z" fill="white"/>
<path d="M28.3589 25.3191V27.9749L30.6323 29.3241L31.0147 28.6787L29.1556 27.5766V25.3191H28.3589Z" fill="white"/>
</svg>
