<svg width="16" height="17" viewBox="0 0 16 17" fill="none" xmlns="http://www.w3.org/2000/svg">
<g clip-path="url(#clip0_521_79)">
<path d="M11.9603 12.4601C10.8207 13.3288 9.43306 13.81 8.00033 13.8334C3.33366 13.8334 0.666992 8.5001 0.666992 8.5001C1.49625 6.9547 2.64642 5.6045 4.04033 4.5401M6.60033 3.32676C7.05921 3.21935 7.52904 3.16566 8.00033 3.16676C12.667 3.16676 15.3337 8.5001 15.3337 8.5001C14.929 9.25717 14.4464 9.96992 13.8937 10.6268M9.41366 9.91343C9.23056 10.1099 9.00976 10.2675 8.76443 10.3768C8.5191 10.4862 8.25426 10.5449 7.98572 10.5497C7.71718 10.5544 7.45043 10.505 7.2014 10.4044C6.95236 10.3038 6.72614 10.1541 6.53622 9.9642C6.34631 9.77428 6.19659 9.54806 6.096 9.29902C5.99541 9.04999 5.94601 8.78325 5.95075 8.5147C5.95549 8.24616 6.01426 7.98133 6.12358 7.736C6.23289 7.49067 6.39049 7.26986 6.58699 7.08677" stroke="#667085" stroke-width="2" stroke-linecap="round" stroke-linejoin="round"/>
<path d="M0.666992 1.16675L15.3337 15.8334" stroke="#667085" stroke-width="2" stroke-linecap="round" stroke-linejoin="round"/>
</g>
<defs>
<clipPath id="clip0_521_79">
<rect width="16" height="16" fill="white" transform="translate(0 0.5)"/>
</clipPath>
</defs>
</svg>
