<svg width="36" height="36" viewBox="0 0 36 36" fill="none" xmlns="http://www.w3.org/2000/svg">
<g clip-path="url(#clip0_521_19)">
<path d="M36 18.1096C36 8.16912 27.9405 0.109619 18 0.109619C8.0595 0.109619 0 8.16912 0 18.1096C0 27.0946 6.582 34.5406 15.1875 35.8906V23.3131H10.617V18.1081H15.1875V14.1451C15.1875 9.63462 17.8755 7.14162 21.987 7.14162C23.955 7.14162 26.016 7.49412 26.016 7.49412V11.9236H23.745C21.5085 11.9236 20.811 13.3111 20.811 14.7346V18.1096H25.803L25.005 23.3146H20.811V35.8921C29.418 34.5406 36 27.0931 36 18.1096Z" fill="#1877F2"/>
</g>
<defs>
<clipPath id="clip0_521_19">
<rect width="36" height="36" fill="white"/>
</clipPath>
</defs>
</svg>
