<svg width="36" height="36" viewBox="0 0 36 36" fill="none" xmlns="http://www.w3.org/2000/svg">
<g clip-path="url(#clip0_521_21)">
<path d="M35.6178 18.405C35.6178 17.22 35.5128 16.095 35.3328 15H18.3828V21.765H28.0878C27.6528 23.985 26.3778 25.86 24.4878 27.135V31.635H30.2778C33.6678 28.5 35.6178 23.88 35.6178 18.405Z" fill="#4285F4"/>
<path d="M18.3824 36.0001C23.2424 36.0001 27.3074 34.3801 30.2774 31.6351L24.4874 27.1351C22.8674 28.2151 20.8124 28.8751 18.3824 28.8751C13.6874 28.8751 9.71238 25.7101 8.28738 21.4351H2.31738V26.0701C5.27238 31.9501 11.3474 36.0001 18.3824 36.0001Z" fill="#34A853"/>
<path d="M8.28781 21.4349C7.91281 20.3549 7.71781 19.1999 7.71781 17.9999C7.71781 16.7999 7.92781 15.6449 8.28781 14.5649V9.92993H2.31781C1.08781 12.3599 0.382812 15.0899 0.382812 17.9999C0.382812 20.9099 1.08781 23.6399 2.31781 26.0699L8.28781 21.4349Z" fill="#FBBC05"/>
<path d="M18.3824 7.125C21.0374 7.125 23.4074 8.04 25.2824 9.825L30.4124 4.695C27.3074 1.785 23.2424 0 18.3824 0C11.3474 0 5.27238 4.05 2.31738 9.93L8.28738 14.565C9.71238 10.29 13.6874 7.125 18.3824 7.125Z" fill="#EA4335"/>
</g>
<defs>
<clipPath id="clip0_521_21">
<rect width="36" height="36" fill="white"/>
</clipPath>
</defs>
</svg>
