<svg width="42" height="46" viewBox="0 0 42 46" fill="none" xmlns="http://www.w3.org/2000/svg">
<path d="M17.1693 30.9907H15.4475C14.3429 30.9907 13.4475 30.0953 13.4475 28.9907V23.0457C13.4475 22.5152 13.6582 22.0065 14.0333 21.6315L15.1505 20.5143C15.5255 20.1392 15.7362 19.6305 15.7362 19.1001V16.4954H17.6435V18.0212L19.6624 16.0023C20.4434 15.2213 21.7098 15.2213 22.4908 16.0023L28.1199 21.6315C28.495 22.0065 28.7057 22.5152 28.7057 23.0457V28.9907C28.7057 30.0953 27.8103 30.9907 26.7057 30.9907H24.9839C23.8793 30.9907 22.9839 30.0953 22.9839 28.9907V28.3205C22.9839 27.2672 22.13 26.4132 21.0766 26.4132C20.0233 26.4132 19.1693 27.2672 19.1693 28.3205V28.9907C19.1693 30.0953 18.2739 30.9907 17.1693 30.9907Z" fill="#60C1F8"/>
<circle cx="21.0766" cy="22.9799" r="16.6655" stroke="#22355D"/>
<circle cx="21.0765" cy="5.81455" r="4.81455" fill="#F8C301" stroke="white" stroke-width="2"/>
<circle cx="35.9422" cy="14.3973" r="4.81455" transform="rotate(60 35.9422 14.3973)" fill="#F8C301" stroke="white" stroke-width="2"/>
<circle cx="6.21077" cy="14.3972" r="4.81455" transform="rotate(-60 6.21077 14.3972)" fill="#F8C301" stroke="white" stroke-width="2"/>
<circle cx="21.0765" cy="40.1454" r="4.81455" fill="#F8C301" stroke="white" stroke-width="2"/>
<circle cx="6.21096" cy="31.5628" r="4.81455" transform="rotate(60 6.21096 31.5628)" fill="#F8C301" stroke="white" stroke-width="2"/>
<circle cx="35.9425" cy="31.5628" r="4.81455" transform="rotate(-60 35.9425 31.5628)" fill="#F8C301" stroke="white" stroke-width="2"/>
</svg>
