<svg width="11" height="11" viewBox="0 0 11 11" fill="none" xmlns="http://www.w3.org/2000/svg">
<path d="M7.87654 0H2.92346C1.31144 0 0 1.31144 0 2.92346V7.87662C0 9.48856 1.31144 10.8 2.92346 10.8H7.87662C9.48856 10.8 10.8 9.48856 10.8 7.87662V2.92346C10.8 1.31144 9.48856 0 7.87654 0V0ZM5.4 8.35304C3.77166 8.35304 2.44696 7.02834 2.44696 5.4C2.44696 3.77166 3.77166 2.44696 5.4 2.44696C7.02834 2.44696 8.35304 3.77166 8.35304 5.4C8.35304 7.02834 7.02834 8.35304 5.4 8.35304V8.35304ZM8.42366 3.14338C7.94246 3.14338 7.55107 2.75199 7.55107 2.27079C7.55107 1.78959 7.94246 1.39812 8.42366 1.39812C8.90486 1.39812 9.29633 1.78959 9.29633 2.27079C9.29633 2.75199 8.90486 3.14338 8.42366 3.14338Z" fill="#373F41"/>
<path d="M5.399 3.08008C4.11986 3.08008 3.0791 4.12076 3.0791 5.39998C3.0791 6.67912 4.11986 7.71988 5.399 7.71988C6.67822 7.71988 7.7189 6.67912 7.7189 5.39998C7.7189 4.12076 6.67822 3.08008 5.399 3.08008Z" fill="#373F41"/>
<path d="M8.42597 2.03076C8.29397 2.03076 8.18652 2.13821 8.18652 2.27021C8.18652 2.40221 8.29397 2.50966 8.42597 2.50966C8.55805 2.50966 8.6655 2.40229 8.6655 2.27021C8.6655 2.13813 8.55805 2.03076 8.42597 2.03076Z" fill="#373F41"/>
</svg>
