<svg width="36" height="36" viewBox="0 0 36 36" fill="none" xmlns="http://www.w3.org/2000/svg">
<g clip-path="url(#clip0_521_27)">
<path d="M30.6705 30.678H25.3395V22.3245C25.3395 20.3325 25.299 17.769 22.5615 17.769C19.782 17.769 19.3575 19.9365 19.3575 22.1775V30.678H14.0265V13.5H19.1475V15.8415H19.2165C19.932 14.4915 21.672 13.0665 24.2715 13.0665C29.673 13.0665 30.672 16.6215 30.672 21.249V30.678H30.6705ZM8.0055 11.1495C6.2895 11.1495 4.911 9.7605 4.911 8.052C4.911 6.345 6.291 4.9575 8.0055 4.9575C9.7155 4.9575 11.1015 6.345 11.1015 8.052C11.1015 9.7605 9.714 11.1495 8.0055 11.1495ZM10.6785 30.678H5.3325V13.5H10.6785V30.678ZM33.3375 0H2.6565C1.188 0 0 1.161 0 2.5935V33.4065C0 34.8405 1.188 36 2.6565 36H33.333C34.8 36 36 34.8405 36 33.4065V2.5935C36 1.161 34.8 0 33.333 0H33.3375Z" fill="#0A66C2"/>
</g>
<defs>
<clipPath id="clip0_521_27">
<rect width="36" height="36" fill="white"/>
</clipPath>
</defs>
</svg>
