<svg width="36" height="39" viewBox="0 0 36 39" fill="none" xmlns="http://www.w3.org/2000/svg">
<path fill-rule="evenodd" clip-rule="evenodd" d="M17.6842 32.421C19.3752 32.421 29.8947 20.6384 29.8947 12.2105C29.8947 5.46684 24.4278 0 17.6842 0C10.9405 0 5.47363 5.46684 5.47363 12.2105C5.47363 20.6384 15.9931 32.421 17.6842 32.421ZM17.6843 17.6842C20.9399 17.6842 23.579 15.045 23.579 11.7894C23.579 8.53388 20.9399 5.89471 17.6843 5.89471C14.4287 5.89471 11.7896 8.53388 11.7896 11.7894C11.7896 15.045 14.4287 17.6842 17.6843 17.6842Z" fill="#60C1F8"/>
<ellipse cx="17.6843" cy="33.8946" rx="2.52631" ry="0.210526" fill="#F8C301"/>
<path fill-rule="evenodd" clip-rule="evenodd" d="M17.6841 35.2585C23.7302 35.2585 28.6315 34.4102 28.6315 33.3637C28.6315 33.33 28.6264 33.2965 28.6163 33.2632C28.9004 33.4289 29.0525 33.6039 29.0525 33.7848C29.0525 34.8312 23.9627 35.6795 17.6841 35.6795C11.4055 35.6795 6.31567 34.8312 6.31567 33.7848C6.31567 33.6039 6.46779 33.4289 6.75187 33.2632C6.74182 33.2965 6.73673 33.33 6.73673 33.3637C6.73673 34.4102 11.638 35.2585 17.6841 35.2585Z" fill="#22355D"/>
<path fill-rule="evenodd" clip-rule="evenodd" d="M17.6842 37.6302C27.0892 37.6302 34.7135 36.3106 34.7135 34.6828C34.7135 34.6303 34.7056 34.5782 34.6899 34.5264C35.1318 34.7842 35.3684 35.0564 35.3684 35.3378C35.3684 36.9656 27.4509 38.2851 17.6842 38.2851C7.91749 38.2851 0 36.9656 0 35.3378C0 35.0563 0.23665 34.7841 0.678592 34.5264C0.66294 34.5782 0.655016 34.6303 0.655016 34.6828C0.655016 36.3106 8.27926 37.6302 17.6842 37.6302Z" fill="#F8C301"/>
</svg>
