<svg width="13" height="10" viewBox="0 0 13 10" fill="none" xmlns="http://www.w3.org/2000/svg">
<path fill-rule="evenodd" clip-rule="evenodd" d="M1.58762 0.95169C1.58762 0.95169 3.23878 3.28936 6.28109 3.33712C6.28109 3.33712 6.02166 1.30983 7.76681 0.689395C7.76681 0.689395 9.25253 0.069425 10.2432 1.23826C10.2432 1.23826 11.3987 1.04721 11.6582 0.689395C11.6582 0.689395 11.5873 1.4079 10.7856 1.93121C10.7856 1.93121 11.5169 1.9301 12.0354 1.64369C12.0354 1.64369 11.3057 2.56688 10.9899 2.71065C10.9845 2.71303 10.9793 2.71525 10.9742 2.71715C10.6678 2.83649 11.3044 4.91186 9.39415 7.36884C9.39415 7.36884 7.94673 9.34837 5.24305 9.73031C4.14356 9.88566 2.53098 10.0167 0.903637 8.77601C0.903637 8.77601 2.55448 8.99087 4.20537 7.75047C4.20537 7.75047 2.50754 7.60719 2.10648 6.17589C2.10648 6.17589 2.88473 6.17589 3.04984 6.15225C3.04984 6.15225 1.23389 5.53182 1.2577 3.77856C1.2577 3.77856 1.87055 4.05292 2.2127 4.01706C2.2127 4.01706 0.679659 2.85997 1.58762 0.95169Z" fill="#373F41"/>
</svg>
